<?xml version="1.0" standalone="no"?>
<!DOCTYPE svg PUBLIC "-//W3C//DTD SVG 20010904//EN"
 "http://www.w3.org/TR/2001/REC-SVG-20010904/DTD/svg10.dtd">
<svg version="1.0" xmlns="http://www.w3.org/2000/svg"
 width="700.000000pt" height="700.000000pt" viewBox="0 0 700.000000 700.000000"
 preserveAspectRatio="xMidYMid meet">
<metadata>
Created by potrace 1.14, written by Peter Selinger 2001-2017
</metadata>
<g transform="translate(0.000000,700.000000) scale(0.100000,-0.100000)"
fill="#000000" stroke="none">
<path d="M3668 6994 c-2 -1 -32 -5 -68 -9 -36 -3 -76 -8 -90 -10 -14 -2 -54
-7 -90 -10 -64 -7 -77 -9 -175 -21 -125 -15 -273 -54 -432 -113 -59 -22 -144
-50 -188 -61 -44 -11 -100 -27 -125 -34 -25 -8 -79 -24 -120 -36 -520 -154
-846 -325 -1087 -572 -89 -90 -121 -130 -203 -253 -29 -44 -80 -109 -113 -144
-54 -59 -216 -259 -260 -321 -278 -396 -441 -736 -558 -1160 -22 -80 -42 -158
-45 -175 -3 -16 -9 -46 -14 -65 -10 -40 -40 -226 -45 -285 -2 -22 -7 -70 -10
-106 -10 -113 -15 -163 -20 -179 -14 -47 -19 -95 -18 -175 0 -77 5 -105 36
-196 20 -58 51 -139 68 -180 61 -146 80 -210 95 -326 18 -144 20 -156 40 -239
31 -136 102 -316 180 -461 40 -74 187 -298 231 -352 170 -208 410 -446 638
-632 219 -180 831 -619 861 -619 4 0 15 -6 23 -14 27 -24 221 -103 341 -139
116 -35 240 -64 315 -73 22 -3 49 -7 61 -9 126 -27 650 -27 889 -1 17 2 63 7
103 11 41 3 81 8 90 9 9 2 44 7 77 10 89 11 181 22 260 32 28 3 53 8 56 10 3
2 20 6 37 9 70 12 307 79 447 126 525 177 914 411 1241 750 278 287 468 586
621 975 49 122 119 338 129 394 3 14 8 34 11 45 4 11 7 22 8 25 0 3 8 39 18
80 9 41 19 89 22 105 12 69 35 214 40 260 4 28 8 61 10 75 10 72 16 130 19
175 2 28 7 100 12 160 4 61 8 270 8 465 l0 355 -26 65 c-14 36 -63 164 -108
285 -153 411 -201 519 -311 700 -50 83 -55 88 -197 245 -48 52 -105 114 -127
139 -22 25 -51 57 -65 71 -14 15 -70 76 -125 136 -208 227 -516 514 -648 603
-248 168 -378 240 -547 303 -113 42 -178 61 -285 82 -78 15 -117 20 -240 31
-84 7 -149 28 -230 76 -38 22 -113 64 -165 92 -52 28 -106 56 -120 64 -20 11
-123 17 -132 7z m-328 -629 c30 -3 82 -10 115 -15 33 -4 150 -6 260 -5 l200 3
240 -60 c354 -89 460 -128 668 -246 260 -148 470 -315 744 -591 187 -189 189
-192 254 -341 13 -30 83 -175 156 -321 155 -312 196 -401 228 -489 32 -88 65
-203 65 -225 0 -9 22 -72 49 -139 53 -131 94 -263 111 -361 5 -33 13 -71 16
-85 10 -45 12 -324 3 -385 -5 -33 -11 -78 -14 -100 -21 -149 -90 -379 -169
-563 -78 -181 -249 -484 -424 -752 -357 -545 -398 -603 -499 -701 -330 -319
-711 -517 -1173 -609 -153 -30 -176 -34 -334 -50 -54 -6 -122 -17 -150 -25
-202 -59 -408 -56 -694 10 -50 12 -241 85 -310 119 -40 20 -84 36 -99 36 -15
0 -65 25 -117 58 -50 33 -143 84 -206 114 -328 159 -581 383 -729 648 -24 41
-60 93 -81 115 -67 71 -168 203 -251 328 -179 272 -340 663 -479 1167 -68 247
-147 555 -155 605 -7 47 -7 187 0 230 28 158 57 252 119 375 42 84 227 401
251 430 13 16 106 199 145 285 13 28 36 104 52 170 26 106 36 130 86 205 111
166 203 271 487 556 119 119 235 227 268 248 58 38 220 116 267 131 50 15 357
138 425 170 90 42 96 44 218 59 105 13 359 14 457 1z"/>
<path d="M3604 5896 c-11 -14 -43 -63 -73 -110 -43 -68 -61 -88 -92 -100 -28
-11 -46 -13 -64 -6 -14 5 -25 6 -25 2 0 -4 -4 -34 -10 -67 -17 -111 -22 -198
-26 -530 -10 -779 -13 -952 -18 -990 -3 -22 -8 -60 -11 -85 -24 -204 -37 -266
-58 -268 -6 -1 -55 -1 -107 -1 -94 -1 -122 1 -177 13 -15 4 -37 8 -48 10 -49
9 -187 70 -265 116 -105 63 -244 168 -333 252 -69 66 -81 89 -93 178 -3 25
-10 68 -14 95 -9 51 -6 493 3 531 3 12 8 45 12 75 16 133 54 325 129 649 13
58 23 106 21 108 -2 2 -12 -1 -23 -7 -12 -6 -41 -11 -66 -11 -41 0 -48 -4 -91
-52 -103 -118 -223 -316 -286 -473 -37 -93 -85 -254 -94 -316 -4 -24 -8 -46
-10 -49 -23 -37 -24 -468 -2 -580 58 -291 243 -487 637 -677 100 -48 260 -112
345 -137 22 -7 108 -13 190 -14 157 -1 203 -11 237 -49 23 -25 30 -164 33
-603 1 -195 5 -389 9 -431 8 -86 7 -88 -117 -216 -36 -38 -74 -78 -84 -90 -11
-12 -73 -79 -139 -149 -215 -230 -222 -238 -338 -379 -45 -55 -103 -131 -128
-170 -53 -81 -138 -241 -138 -260 0 -11 41 -25 75 -25 14 0 150 104 300 229
123 103 355 338 439 444 38 48 74 86 80 84 28 -9 30 -37 8 -124 -39 -154 -44
-272 -26 -558 9 -149 11 -414 3 -555 -3 -70 -1 -90 14 -111 33 -49 53 -29 91
90 19 58 39 131 45 161 6 30 14 66 16 80 3 14 10 61 16 105 18 147 20 158 45
206 40 80 71 186 99 344 15 83 31 157 35 165 6 10 29 -29 78 -130 38 -80 80
-170 92 -200 31 -72 159 -323 193 -377 22 -35 33 -43 57 -43 17 0 38 -8 48
-18 37 -37 74 -61 86 -56 9 4 12 22 10 62 -8 130 -13 156 -94 477 -38 149 -71
294 -75 322 -9 73 -16 93 -73 213 -62 128 -92 233 -110 375 -8 71 -8 399 1
535 6 93 14 263 21 444 5 121 1 118 191 142 202 26 442 102 642 204 76 38 145
74 153 80 43 27 182 110 185 110 7 0 242 163 285 198 25 20 51 44 58 54 7 9
19 24 28 33 28 27 83 126 108 194 60 160 71 236 81 541 8 265 15 413 20 430 3
10 -7 23 -26 34 -37 22 -85 87 -94 127 -4 16 -12 29 -19 29 -29 0 -68 46 -104
124 -22 46 -46 85 -55 89 -24 9 -42 -22 -53 -92 -3 -20 -25 -59 -49 -91 -103
-133 -138 -261 -138 -505 0 -90 7 -196 18 -264 3 -14 7 -52 10 -85 3 -34 8
-72 10 -86 30 -170 9 -246 -101 -357 -66 -66 -85 -78 -255 -161 -218 -106
-235 -113 -364 -157 -55 -18 -133 -45 -174 -59 -91 -33 -179 -41 -248 -21 -29
9 -55 20 -59 26 -4 7 -6 44 -4 83 7 191 -1 572 -14 706 -2 19 -7 94 -11 165
-4 72 -8 137 -10 145 -9 47 -19 350 -20 580 0 239 -2 268 -18 295 -10 17 -33
59 -50 95 -35 72 -56 83 -83 46z"/>
</g>
</svg>
