<svg xmlns="http://www.w3.org/2000/svg" width="350" height="186" fill="none"><mask id="a" width="350" height="186" x="0" y="0" maskUnits="userSpaceOnUse" style="mask-type:alpha"><path fill="#fff" d="M61 103h56v12.2H75.3v21.2h36.6V148H75.3v36H61v-81Zm126.2 22.3h12.2v11.3h.2a13 13 0 0 1 2.2-4.6 22.5 22.5 0 0 1 9.2-7.2c1.9-.7 3.8-1.1 5.7-1.1l3.1.1 1.8.2v12.5a32.6 32.6 0 0 0-5.5-.5 14.7 14.7 0 0 0-11.3 5.2 18.3 18.3 0 0 0-3.4 6.2c-.8 2.5-1.2 5.4-1.2 8.6v28h-13v-58.7Z"/><path fill="#fff" d="M257 149.5c-.2-2-.7-4-1.4-6a14 14 0 0 0-3-4.8 12.8 12.8 0 0 0-4.5-3.4c-1.8-1-3.7-1.4-6-1.4a15.3 15.3 0 0 0-11 4.5 17 17 0 0 0-3.1 5 18 18 0 0 0-1.3 6H257Zm-30.3 8.5c0 2.2.3 4.4 1 6.5a17 17 0 0 0 2.9 5.6c1.3 1.6 2.9 2.9 4.9 3.9 2 .9 4.3 1.3 7 1.3a15 15 0 0 0 9-2.4c2.4-1.6 4.2-4 5.3-7.3h12.3a24.4 24.4 0 0 1-17.5 18.6 30 30 0 0 1-9 1.3 31 31 0 0 1-12.3-2.2 26 26 0 0 1-14.7-16.1 40.8 40.8 0 0 1 .1-24.3 31 31 0 0 1 5.7-9.9 27 27 0 0 1 20.8-9.3c4.6 0 8.7 1 12.3 3a26 26 0 0 1 9.2 7.5c2.4 3.2 4.2 6.9 5.2 11 1.2 4.1 1.5 8.4 1 12.8h-43.2Z"/><path fill="#fff" d="M281 165.1c.3 3.8 1.8 6.4 4.3 8a17 17 0 0 0 9 2.2c1.1 0 2.5 0 4-.2 1.6-.2 3-.6 4.4-1.1a8 8 0 0 0 3.3-2.3c1-1 1.3-2.4 1.3-4a6 6 0 0 0-1.8-4.2c-1.2-1-2.7-1.9-4.5-2.5-1.7-.7-3.7-1.2-6-1.7a285.6 285.6 0 0 1-14-3.4 28 28 0 0 1-6-3c-1.7-1.3-3.1-3-4.2-5-1-2-1.6-4.5-1.6-7.4 0-3.2.8-5.8 2.3-8 1.6-2.1 3.6-3.9 6-5.2 2.3-1.3 5-2.3 7.9-2.8 3-.5 5.7-.8 8.4-.8 3 0 5.9.3 8.6 1a22 22 0 0 1 7.5 3 18 18 0 0 1 5.5 5.8c1.6 2.2 2.5 5 2.9 8.2h-13.5c-.6-3-2-5.1-4.3-6.2-2.2-1-4.8-1.6-7.6-1.6-1 0-2 0-3.3.2-1.2.2-2.4.5-3.6 1-1 .3-2 1-2.7 1.8a4 4 0 0 0-1.1 3 5 5 0 0 0 1.6 3.9c1.1 1 2.5 1.8 4.3 2.5 1.8.6 3.8 1.1 6.1 1.6l7 1.4c2.4.6 4.7 1.2 7 2 2.2.7 4.3 1.7 6 3a14 14 0 0 1 6 12.2c0 3.5-.8 6.4-2.4 8.8a18.7 18.7 0 0 1-6.2 6 27.4 27.4 0 0 1-8.4 3.2 42.8 42.8 0 0 1-19.5-.2 20 20 0 0 1-13.6-10.1c-1.3-2.6-2-5.6-2.1-9h13Z"/><path fill="#fff" d="M315.6 125.3h9.8v-17.6h13v17.6H350v9.6h-11.7v31.4l.1 3.5c.2 1 .4 1.8.8 2.5.5.6 1.1 1.2 2 1.6.8.3 2 .4 3.4.4h2.7c.9 0 1.8-.2 2.7-.4v10a737.4 737.4 0 0 0-8.4.6 31 31 0 0 1-8.3-.9c-2-.7-3.7-1.6-4.9-2.8a11 11 0 0 1-2.3-4.8c-.4-1.9-.7-4-.7-6.5V135h-9.8v-9.6ZM148.1 184h-3.4c-1.6-.2-3.2-.4-4.7-.8-1.8-.5-3.4-1.2-5-2.3l-6.1-4.6a37.2 37.2 0 0 1-5.2-5 21 21 0 0 1-3-5c-.8-1.5-1.3-3.1-1.4-4.8a6.3 6.3 0 0 0-.8-2.7l-.7-2c-.3-1-.4-1.9-.1-2.8l.1-.7a32.4 32.4 0 0 1 3.6-12.8 33.2 33.2 0 0 1 5.5-7.7c.8-1.4 2-2.6 3.2-3.6 1.5-1.2 3.2-2 5-2.8l5.1-1.6c.8-.2 1.7-.4 2.4-.8l.4-.1c1.2-.5 2.5-.6 3.7-.8l3.5-.4.6.1 1.5.9 1.5.8c.4.2 1 .4 1.5.4 1.3 0 2.7.3 4 .7a20 20 0 0 1 5.2 2.8 35 35 0 0 1 4.9 4.4l4.8 5.2.4.6a22 22 0 0 1 2 4l2.1 5.6v2.5l.1.4v1.1l-.1 3.5c-.2 1.7-.3 3.4-.7 5a25.2 25.2 0 0 1-14.6 19.9c-2 1-4 1.6-6.2 2.2l-1.6.4c-.5 0-1 0-1.5.2l-5.7.5h-.3Zm-2.6-55.8-3.2.1c-.5.1-1 .2-1.5.5l-.4.2-2.6 1-2.7 1.3-1 .6-4.2 4.4a19.7 19.7 0 0 0-2.3 3.2c0 .7-.3 1.4-.5 2-.4 1.2-1 2.2-1.7 3.3l-1.6 2.6c-.7 1.3-1.2 2.7-1.3 4.2v2.4l1.3 4.3c.6 2.3 1.3 4.6 2.3 6.8a23.5 23.5 0 0 0 4.7 7.2 12 12 0 0 0 2.5 3.4c1.3 1.1 2.7 2 4.3 2.8l1.9 1c.2.2.4.3.7.3l.5.2c1.7.8 3.5 1.5 5.4 1.6 1.3.2 2.7 0 4-.4h.4l4.3-.7c4-1 7.3-2.8 10-5.7l.5-.5 3.2-4.9a51 51 0 0 0 3.4-5.7c1-2.3 1.9-4.6 2.1-7a14.1 14.1 0 0 0-1.4-7.7v-.4l-1-3-1.5-3c-.7-1.5-1.5-3-2-4.4l-.2-.3-3-3a27.4 27.4 0 0 0-5-3.7c-1.3-.8-2.7-1.4-4.1-1.8l-4-1h-3.9l-2.4-.2Z"/><path fill="#fff" d="M163 134.6c.3 0 .4.2.5.4l.2.6.3.4c.1.3.3.5.7.6a2 2 0 0 0 1 1.5v3.3l-.2 2.4c0 1.3-.3 2.5-1 3.6a6.6 6.6 0 0 1-1.1 1.6 39.6 39.6 0 0 1-5.5 3.5c-1.5.8-3 1.4-4.7 1.7l-2.2.3-.3.1c-.2.2-.2.3-.2.5l-.1 2.6c-.1 1.7-.3 3.5-.2 5.2a11 11 0 0 0 1.3 5.1c.2.2.3.5.3.7.1 1 .4 2 .6 2.9a94.3 94.3 0 0 1 1 5.1h-.5l-.4-.4c-.2-.3-.3-.3-.6-.1l-.5-.9c-.7-1-1.1-2.2-1.6-3.3l-1.1-2.3-.3-.3v.3l-.4 2.1c-.2 1-.4 1.9-1 2.7v.3c-.1 1.6-.4 3.2-1 4.8v.1c-.1.2-.4.3-.5 0-.2-.1-.3-.4-.3-.7.2-1.1.2-2.2.2-3.3-.1-1.5-.3-2.9-.2-4.3 0-1 .1-2 .4-3v-.4l-.2-.2-1 1.1c-1.3 1.6-2.8 3-4.4 4.3l-1.6 1.2c-.1.1-.2.2-.4.1l-.5-.1.2-.5c.5-1.2 1.3-2.3 2.1-3.3l2.7-3 3.2-3.4.2-.5-.2-2.1v-4.7l-.2-2.4-.1-.3c-.3-.3-.7-.4-1-.4h-2c-.5 0-1-.3-1.4-.4a16.2 16.2 0 0 1-6.7-4.2c-.7-1-1.1-2.1-1.3-3.4V143a15 15 0 0 1 3.8-9.2c.1 0 .2-.2.4-.1h.2c.2 0 .5 0 .7-.3v.3l-1 4.4a26.5 26.5 0 0 0-.2 9l.2.2c1.1 1.2 2.4 2.2 4 3 1 .6 2.3 1 3.7 1h1l.2-.7c.3-1.8.4-3.7.4-5.5v-6.3c0-1.5.2-3 .4-4.4v-.2h.2c.3.2.7.1 1-.1l.5-.7.4-.8.2-.3c.2-.2.3-.2.5 0l.2.3.2.5c0 .2.1.5.4.6v3.8l.2 3.7a420.9 420.9 0 0 0 .3 8v1.6c.3.2.6.4 1 .4.5 0 1 0 1.5-.2l1.4-.5 1.2-.4h.2l2-1 1.4-.7 1.4-1.1.6-1.2v-.8l-.4-3.1c-.1-1.3-.2-2.5 0-3.7a5 5 0 0 1 1.4-2.5l.1-.4.4-1ZM0 0h33.6c6.2 0 11.6 1 16.1 3.2 4.5 2.1 8.3 5 11.1 8.7 2.9 3.6 5 8 6.4 12.8a56 56 0 0 1 0 31.6 37 37 0 0 1-6.4 13 30.2 30.2 0 0 1-11 8.5A38 38 0 0 1 33.5 81H0V0Zm14.2 69.5h14c5.5 0 10-.8 13.4-2.2A20 20 0 0 0 54 52a55 55 0 0 0 0-22.8c-.7-3.6-2-6.7-4-9.2-2-2.7-4.8-4.7-8.4-6.2-3.4-1.5-8-2.2-13.5-2.2h-14v57.9Z"/><path fill="#fff" d="M111.9 46.5c-.2-2-.6-4-1.4-5.9-.7-1.9-1.7-3.5-3-4.9a12.8 12.8 0 0 0-4.5-3.4 15.3 15.3 0 0 0-17 3.2 17 17 0 0 0-3 4.9 18 18 0 0 0-1.3 6.1h30.2ZM81.7 55c0 2.3.3 4.5.9 6.6a17 17 0 0 0 3 5.6c1.2 1.6 2.8 2.9 4.8 3.8 2 1 4.3 1.4 7 1.4 3.8 0 6.9-.8 9.1-2.4 2.4-1.6 4.1-4.1 5.2-7.4H124a24.4 24.4 0 0 1-17.5 18.7 30 30 0 0 1-9 1.3 31 31 0 0 1-12.3-2.3 25.9 25.9 0 0 1-14.6-16 40.8 40.8 0 0 1 0-24.4 31 31 0 0 1 5.7-9.8 27 27 0 0 1 20.8-9.3c4.6 0 8.7 1 12.4 3 3.7 1.8 6.7 4.3 9.2 7.5a33.9 33.9 0 0 1 6.1 23.7H81.7Z"/><path fill="#fff" d="M166.4 46.5a19.7 19.7 0 0 0-4.3-10.8 12.8 12.8 0 0 0-4.5-3.4 15.3 15.3 0 0 0-17 3.2 17 17 0 0 0-3.1 4.9 18 18 0 0 0-1.3 6.1h30.2ZM136.2 55c0 2.3.3 4.5 1 6.6a17 17 0 0 0 2.9 5.6c1.3 1.6 2.9 2.9 4.9 3.8 2 1 4.3 1.4 7 1.4a15 15 0 0 0 9-2.4c2.4-1.6 4.2-4.1 5.3-7.4h12.2a24.4 24.4 0 0 1-17.4 18.7 30 30 0 0 1-9.1 1.3 31 31 0 0 1-12.3-2.3 25.9 25.9 0 0 1-14.6-16 40.8 40.8 0 0 1 .1-24.4 31 31 0 0 1 5.7-9.8 27 27 0 0 1 20.8-9.3c4.6 0 8.7 1 12.3 3a25 25 0 0 1 9.2 7.5c2.4 3.2 4.2 6.9 5.2 11a32 32 0 0 1 1 12.7h-43.2ZM181 22.4h12.3v7.9h.2c1.8-3.4 4.3-5.8 7.6-7.3 3.2-1.5 6.8-2.2 10.5-2.2 4.7 0 8.7.8 12 2.5a23 23 0 0 1 8.7 6.7c2.3 2.8 4 6 5.1 9.8a42 42 0 0 1 .1 23.6 29 29 0 0 1-4.6 10 23.2 23.2 0 0 1-19.1 9.2 28.9 28.9 0 0 1-16-5 17.5 17.5 0 0 1-3.6-4.2h-.3v29.3H181V22.4Zm45.2 29.3c0-2.6-.4-5.2-1-7.7-.7-2.5-1.8-4.7-3.1-6.6a15 15 0 0 0-12.2-6.4c-5.4 0-9.5 1.9-12.3 5.7a25.2 25.2 0 0 0-4.1 15c0 3 .3 5.8 1 8.3a21 21 0 0 0 3.3 6.5 15 15 0 0 0 5.1 4.3c2 1 4.4 1.6 7 1.6a14.5 14.5 0 0 0 12.5-6.5 19 19 0 0 0 2.9-6.5c.6-2.5.9-5 .9-7.7Z"/></mask><g mask="url(#a)"><circle cx="158.5" cy="123.5" r="203.8" fill="url(#b)"/></g><defs><radialGradient id="b" cx="0" cy="0" r="1" gradientTransform="rotate(-152.3 184.4 74.6) scale(323.914 261.345)" gradientUnits="userSpaceOnUse"><stop stop-color="#0094FF"/><stop offset=".5" stop-color="#0047FF"/><stop offset="1" stop-color="#25DC4D"/></radialGradient></defs></svg>