<svg xmlns="http://www.w3.org/2000/svg" width="81" height="81" fill="none"><path fill="#fff" d="M40.4 81h-4.2l-.3-.2a28 28 0 0 1-6.2-1c-2.3-.6-4.5-1.5-6.5-3-2.8-2-5.6-3.9-8.2-6-2.5-2-4.8-4.2-6.9-6.7-1.6-2-3-4-4-6.4-1-2.1-1.6-4.3-1.7-6.5a8.3 8.3 0 0 0-1-3.6L.2 45a6.2 6.2 0 0 1 0-3.5v-1a43 43 0 0 1 4.8-16.9 43.8 43.8 0 0 1 7.3-10.2c1.1-1.8 2.5-3.4 4.2-4.8C18.6 7 21 5.8 23.2 5c2.2-.9 4.5-1.5 6.8-2.1 1-.3 2.2-.6 3.2-1.1l.5-.2c1.6-.6 3.2-.8 4.9-1L43 0l.8.1 2 1.1 2 1.1c.6.4 1.3.5 2 .6 1.8 0 3.6.4 5.3 1 2.5.8 4.8 2 7 3.6 2.2 1.7 4.4 3.7 6.3 5.8 2.2 2.2 4.2 4.5 6.3 6.8l.7.9c1 1.6 1.9 3.4 2.6 5.3l2.8 7.3V37l.1.5v1.4c0 1.6 0 3.1-.2 4.7a64 64 0 0 1-.8 6.6c-.6 3.3-1.5 6.4-2.8 9.5a32.4 32.4 0 0 1-16.6 16.8 49.3 49.3 0 0 1-8.2 2.8l-2 .6-2 .2c-2.6.3-5 .6-7.6.7l-.4.1ZM37 7.1c-1.8 0-3 0-4.2.2-.7.1-1.4.3-2 .7l-.5.2-3.5 1.4c-1.2.5-2.5.9-3.6 1.6L22 12c-1.9 2-3.9 3.8-5.6 5.8a26 26 0 0 0-3 4.2c-.2 1-.4 1.9-.8 2.8a27 27 0 0 1-2.2 4.2l-2 3.5c-1 1.7-1.7 3.5-1.9 5.5 0 1 0 2.1.2 3.2L8.2 47c.9 3 1.8 6 3 9a31 31 0 0 0 6.4 9.5c.7 1.8 1.9 3.2 3.3 4.5 1.7 1.5 3.6 2.7 5.6 3.7.9.4 1.8.8 2.5 1.4.3.2.6.4 1 .4l.6.1c2.2 1.2 4.6 2 7.1 2.2 1.8.2 3.6 0 5.3-.5l.6-.1c1.9-.2 3.8-.4 5.7-.9 5.1-1.2 9.6-3.7 13.2-7.5l.7-.7 4.2-6.4c1.6-2.5 3.2-5 4.4-7.6 1.5-3 2.5-6 2.8-9.2a18.6 18.6 0 0 0-1.8-10.2l-.1-.5c-.3-1.4-.7-2.8-1.3-4a94 94 0 0 0-1.9-4c-1-1.9-2-3.8-2.8-5.8A36.2 36.2 0 0 0 56 11.2a23 23 0 0 0-5.5-2.3l-5.3-1.4h-5L37 7.1Z"/><path fill="#fff" d="M60.2 15.7c.2 0 .4.3.5.5l.4.8.3.6c.2.4.5.6 1 .7.1.9.5 1.6 1.4 2l-.1 1.2-.1 3.2c0 1 0 2.1-.2 3.2 0 1.6-.4 3.3-1.2 4.8a8.7 8.7 0 0 1-1.6 2 52.3 52.3 0 0 1-7.3 4.7c-2 1-4 1.7-6.2 2.2l-2.8.3-.5.2c-.2.2-.3.4-.3.7v3.4c-.2 2.3-.4 4.6-.3 7a14.6 14.6 0 0 0 1.7 6.6l.4 1c.1 1.3.5 2.5.8 3.7l1 4.1.3 2.7c-.2.2-.4 0-.6 0l-.5-.6c-.4-.3-.4-.3-.9 0l-.7-1.2c-.8-1.4-1.5-2.9-2.1-4.3l-1.4-3-.4-.6v.5l-.6 2.8a10 10 0 0 1-1.2 3.5v.4c-.2 2.1-.6 4.3-1.4 6.3v.2c-.2.3-.5.3-.6.1-.3-.3-.5-.6-.4-1 .3-1.5.2-3 .2-4.5-.1-1.8-.3-3.7-.3-5.6 0-1.4.2-2.7.6-4v-.5l-.3-.3-1.2 1.6c-1.8 2-3.8 4-6 5.6l-2 1.6c-.2.2-.3.2-.5.1l-.7-.2.2-.6c.8-1.6 1.8-3 2.9-4.4 1-1.4 2.3-2.7 3.5-4l4.2-4.4c.2-.2.3-.4.2-.7l-.1-2.8v-6.2L37 42c0-.2 0-.3-.2-.5-.4-.3-.8-.4-1.3-.5h-2.6c-.7 0-1.3-.3-1.9-.5-1.8-.7-3.6-1.4-5.3-2.4-1.3-.9-2.6-1.9-3.5-3.1a8.2 8.2 0 0 1-1.7-4.4c0-1.3-.2-2.6 0-3.9a19.9 19.9 0 0 1 5-12c.1-.2.2-.3.4-.2h.3c.4 0 .7 0 1-.4v.4c-.5 2-1 3.9-1.3 5.8a35.1 35.1 0 0 0-.3 11.8l.2.3c1.6 1.6 3.3 3 5.2 4 1.6.9 3.2 1.4 5 1.4l1.5-.2.1-.8c.4-2.4.6-4.8.6-7.3v-8.3c0-2 .2-3.9.5-5.8v-.2h.2c.5.2 1 .1 1.3-.2l.7-1 .6-1 .3-.4c.2-.2.4-.2.6 0l.2.4.3.7c0 .3.2.6.5.9l.1.4v4.5a546 546 0 0 0 .6 9.8V37c.4.3.8.5 1.3.5.7.1 1.4 0 2-.2l1.8-.7 1.6-.5.3-.1 2.7-1.3 1.8-.9a5 5 0 0 0 2.6-3v-1l-.5-4.2a16 16 0 0 1 .1-4.8c.3-1.3.8-2.5 1.7-3.4l.3-.5c0-.5.1-1 .4-1.3Z"/></svg>