<svg xmlns="http://www.w3.org/2000/svg">
  <symbol id="search" viewBox="0 0 16 16"><path d="M11.963 6.004C11.963 2.702 9.27 0 5.98 0S0 2.702 0 6.004c0 3.302 2.692 6.004 5.981 6.004 3.29 0 5.982-2.702 5.982-6.004ZM5.98 11.407c-2.96 0-5.383-2.431-5.383-5.403C.598 3.032 3.021.6 5.981.6c2.961 0 5.383 2.432 5.383 5.404s-2.422 5.403-5.383 5.403ZM15.671 13.749l-3.41-3.453c-.328-.33-.926-.33-1.255 0l-.628.63c-.36.361-.36.931 0 1.262l3.439 3.452c.21.21.538.33.837.33.15 0 .33-.03.449-.09l.06-.03.777-.78.03-.06c.12-.36.03-.931-.299-1.261Zm-.27 1.02-.597.6c-.18.06-.449 0-.598-.12l-3.44-3.452a.29.29 0 0 1 0-.42l.628-.63c.06-.06.12-.09.21-.09s.15.03.21.09l3.438 3.422c.15.15.21.42.15.6Z" fill="currentColor"/></symbol>
  <symbol id="fb" viewBox="0 0 11 23"><path d="M9.92 12.01H6.8v10H2.19v-10H0V8.1h2.2V5.56C2.2 3.75 3.05.9 6.83.9l3.42.01v3.8H7.78c-.41 0-.98.2-.98 1.07V8.1h3.51l-.4 3.91Z" fill="currentColor"/></symbol>
  <symbol id="insta" viewBox="0 0 22 22"><path d="M15.09 2.85c1 .05 1.54.22 1.9.36.48.18.83.4 1.19.77.36.36.58.7.76 1.18.15.36.31.9.36 1.9.12 2.76.12 5.56 0 8.31a5.7 5.7 0 0 1-.36 1.91c-.18.48-.4.82-.76 1.18s-.7.58-1.19.77c-.36.14-.9.3-1.9.36-2.76.12-5.56.12-8.31 0-1-.05-1.55-.22-1.9-.36-.49-.19-.83-.4-1.19-.77a3.2 3.2 0 0 1-.77-1.18 5.7 5.7 0 0 1-.35-1.9 92.38 92.38 0 0 1 0-8.31c.04-1 .21-1.55.35-1.91.19-.48.41-.82.77-1.18.36-.36.7-.59 1.18-.77.36-.14.9-.31 1.91-.36 2.75-.12 5.55-.12 8.3 0Zm-8.4-1.84a7.39 7.39 0 0 0-2.49.47c-.67.26-1.25.62-1.82 1.19A5.02 5.02 0 0 0 1.2 4.49c-.26.65-.43 1.4-.48 2.5a94.07 94.07 0 0 0 0 8.47c.05 1.1.22 1.84.48 2.5a5.2 5.2 0 0 0 3 3c.65.25 1.4.42 2.5.47 2.8.13 5.66.13 8.47 0a7.56 7.56 0 0 0 2.5-.47 5.05 5.05 0 0 0 1.82-1.19c.57-.57.92-1.14 1.18-1.82.25-.65.43-1.4.48-2.5.13-2.8.13-5.66 0-8.47a7.52 7.52 0 0 0-.48-2.5 5.02 5.02 0 0 0-1.18-1.81 5.04 5.04 0 0 0-1.82-1.19 7.53 7.53 0 0 0-2.5-.47C12.37.87 9.5.87 6.7 1Zm4.24 4.93a5.28 5.28 0 1 0 0 10.56 5.28 5.28 0 0 0 0-10.56Zm0 8.7a3.43 3.43 0 1 1 0-6.85 3.43 3.43 0 0 1 0 6.86Zm6.72-8.9a1.23 1.23 0 1 1-2.46 0 1.23 1.23 0 0 1 2.46 0Z" fill="currentColor"/></symbol>
  <symbol id="ytb" viewBox="0 0 30 22"><path d="m26.92 3.73-.01-.02a2.36 2.36 0 0 0-.81-.3 16 16 0 0 0-2.57-.32 88.25 88.25 0 0 0-4.36-.15c-1.2-.02-2.49-.05-3.9-.1-1.3.05-2.53.08-3.66.1-1.72.04-3.24.08-4.58.17-1.1.07-1.95.18-2.58.33-.6.14-.8.28-.83.3-.23.23-.32.34-.4.47-.08.13-.2.36-.31.82-.24.99-.42 2.78-.42 6.32 0 3.56.18 5.35.42 6.33.11.46.22.68.3.8.08.13.17.23.41.48.03.01.23.15.83.3.63.15 1.48.25 2.58.33 1.34.09 2.86.12 4.58.16l3.67.1 3.67-.1c1.72-.04 3.24-.07 4.58-.16a16.4 16.4 0 0 0 2.57-.33 2.5 2.5 0 0 0 .83-.3c.23-.24.33-.35.41-.48.08-.13.2-.35.3-.82.25-.98.43-2.78.43-6.31 0-3.57-.18-5.36-.42-6.34a2.65 2.65 0 0 0-.3-.8 2.7 2.7 0 0 0-.42-.47l-.01-.01ZM15.28 21.79c-1.27-.05-2.5-.08-3.64-.1-4.69-.11-8.2-.2-9.38-1.37-1-1-1.7-1.82-1.7-8.97 0-7.1.7-7.98 1.7-8.98 1.17-1.17 4.7-1.25 9.38-1.36l3.64-.1c1.35.05 2.64.07 3.85.1 4.58.09 8 .16 9.17 1.36 1 1 1.7 1.82 1.7 8.98 0 7.1-.7 7.98-1.7 8.97-1.18 1.18-4.7 1.26-9.38 1.37-1.15.02-2.37.05-3.64.1Z" fill="currentColor"/><path d="m19.85 11.29-7.56 4.46V6.89l7.56 4.4Z" fill="currentColor"/></symbol>
</svg>
