<svg xmlns="http://www.w3.org/2000/svg">
  <symbol id="search" viewBox="0 0 16 16"><path d="M11.963 6.004C11.963 2.702 9.27 0 5.98 0S0 2.702 0 6.004c0 3.302 2.692 6.004 5.981 6.004 3.29 0 5.982-2.702 5.982-6.004ZM5.98 11.407c-2.96 0-5.383-2.431-5.383-5.403C.598 3.032 3.021.6 5.981.6c2.961 0 5.383 2.432 5.383 5.404s-2.422 5.403-5.383 5.403ZM15.671 13.749l-3.41-3.453c-.328-.33-.926-.33-1.255 0l-.628.63c-.36.361-.36.931 0 1.262l3.439 3.452c.21.21.538.33.837.33.15 0 .33-.03.449-.09l.06-.03.777-.78.03-.06c.12-.36.03-.931-.299-1.261Zm-.27 1.02-.597.6c-.18.06-.449 0-.598-.12l-3.44-3.452a.29.29 0 0 1 0-.42l.628-.63c.06-.06.12-.09.21-.09s.15.03.21.09l3.438 3.422c.15.15.21.42.15.6Z" fill="currentColor"/></symbol>
</svg>
